Coordinates
nRows=217
nColumns=2
inDegrees=yes
endheader
time	ankle_angle_r	
3.09375	  9.383892	
3.12702	  9.409648	
3.16028	  9.422519	
3.19355	  9.422173	
3.22681	  9.416865	
3.26008	  9.411684	
3.29335	  9.403750	
3.32661	  9.390992	
3.35988	  9.379540	
3.39315	  9.374022	
3.42641	  9.371840	
3.45968	  9.369911	
3.49294	  9.366169	
3.52621	  9.359798	
3.55948	  9.353388	
3.59274	  9.349487	
3.62601	  9.348733	
3.65927	  9.351494	
3.69254	  9.355196	
3.72581	  9.355292	
3.75907	  9.352183	
3.79234	  9.349304	
3.8256	  9.348333	
3.85887	  9.349852	
3.89214	  9.351407	
3.9254	  9.351358	
3.95867	  9.353521	
3.99194	  9.357710	
4.0252	  9.358617	
4.05847	  9.356681	
4.09173	  9.355646	
4.125	  9.356025	
4.15827	  9.357456	
4.19153	  9.359296	
4.2248	  9.361192	
4.25806	  9.365017	
4.29133	  9.370453	
4.3246	  9.374387	
4.35786	  9.375698	
4.39113	  9.375057	
4.4244	  9.375224	
4.45766	  9.379843	
4.49093	  9.387066	
4.52419	  9.390371	
4.55746	  9.386637	
4.59073	  9.379289	
4.62399	  9.374361	
4.65726	  9.374981	
4.69052	  9.380658	
4.72379	  9.390365	
4.75706	  9.401358	
4.79032	  9.408380	
4.82359	  9.408897	
4.85685	  9.405021	
4.89012	  9.401220	
4.92339	  9.401921	
4.95665	  9.406440	
4.98992	  9.410945	
5.02319	  9.417196	
5.05645	  9.427075	
5.08972	  9.434576	
5.12298	  9.435464	
5.15625	  9.434075	
5.18952	  9.436083	
5.22278	  9.441773	
5.25605	  9.446083	
5.28931	  9.444589	
5.32258	  9.439225	
5.35585	  9.436131	
5.38911	  9.438195	
5.42238	  9.440165	
5.45565	  9.433767	
5.48891	  9.419963	
5.52218	  9.409805	
5.55544	  9.409826	
5.58871	  9.416047	
5.62198	  9.423456	
5.65524	  9.429794	
5.68851	  9.433684	
5.72177	  9.436593	
5.75504	  9.440870	
5.78831	  9.448297	
5.82157	  9.460327	
5.85484	  9.471637	
5.8881	  9.473890	
5.92137	  9.468552	
5.95464	  9.463385	
5.9879	  9.463522	
6.02117	  9.471510	
6.05444	  9.485185	
6.0877	  9.498228	
6.12097	  9.509421	
6.15423	  9.519150	
6.1875	  9.518070	
6.22077	  9.499343	
6.25403	  9.471501	
6.2873	  9.446492	
6.32056	  9.429972	
6.35383	  9.419739	
6.3871	  9.409323	
6.42036	  9.399764	
6.45363	  9.395554	
6.4869	  9.391957	
6.52016	  9.382844	
6.55343	  9.371504	
6.58669	  9.365201	
6.61996	  9.368350	
6.65323	  9.379397	
6.68649	  9.389785	
6.71976	  9.391907	
6.75302	  9.385645	
6.78629	  9.377433	
6.81956	  9.375930	
6.85282	  9.380421	
6.88609	  9.381284	
6.91935	  9.377311	
6.95262	  9.375123	
6.98589	  9.376563	
7.01915	  9.379401	
7.05242	  9.380053	
7.08569	  9.375164	
7.11895	  9.366391	
7.15222	  9.359172	
7.18548	  9.357293	
7.21875	  9.359819	
7.25202	  9.362352	
7.28528	  9.362932	
7.31855	  9.362763	
7.35181	  9.360936	
7.38508	  9.356435	
7.41835	  9.351487	
7.45161	  9.347566	
7.48488	  9.345563	
7.51815	  9.347732	
7.55141	  9.352958	
7.58468	  9.358098	
7.61794	  9.363087	
7.65121	  9.366767	
7.68448	  9.367265	
7.71774	  9.368051	
7.75101	  9.372348	
7.78427	  9.377191	
7.81754	  9.378112	
7.85081	  9.373187	
7.88407	  9.364765	
7.91734	  9.358134	
7.9506	  9.354389	
7.98387	  9.350987	
8.01714	  9.348808	
8.0504	  9.348975	
8.08367	  9.348887	
8.11694	  9.346761	
8.1502	  9.342915	
8.18347	  9.339404	
8.21673	  9.340935	
8.25	  9.347991	
8.28327	  9.353435	
8.31653	  9.352972	
8.3498	  9.349344	
8.38306	  9.346272	
8.41633	  9.346395	
8.4496	  9.348855	
8.48286	  9.348945	
8.51613	  9.345526	
8.5494	  9.343468	
8.58266	  9.346283	
8.61593	  9.350760	
8.64919	  9.352425	
8.68246	  9.352679	
8.71573	  9.355177	
8.74899	  9.359285	
8.78226	  9.362242	
8.81552	  9.363401	
8.84879	  9.362408	
8.88206	  9.359607	
8.91532	  9.358294	
8.94859	  9.359639	
8.98185	  9.362167	
9.01512	  9.366575	
9.04839	  9.371741	
9.08165	  9.374007	
9.11492	  9.373080	
9.14819	  9.371294	
9.18145	  9.372593	
9.21472	  9.379580	
9.24798	  9.387183	
9.28125	  9.389491	
9.31452	  9.389360	
9.34778	  9.394101	
9.38105	  9.408354	
9.41431	  9.428656	
9.44758	  9.442005	
9.48085	  9.440089	
9.51411	  9.430342	
9.54738	  9.424365	
9.58065	  9.427406	
9.61391	  9.439189	
9.64718	  9.455283	
9.68044	  9.471401	
9.71371	  9.484600	
9.74698	  9.492156	
9.78024	  9.496559	
9.81351	  9.501118	
9.84677	  9.503268	
9.88004	  9.503194	
9.91331	  9.502819	
9.94657	  9.497437	
9.97984	  9.483759	
10.0131	  9.464911	
10.0464	  9.446116	
10.0796	  9.432340	
10.1129	  9.421889	
10.1462	  9.408490	
10.1794	  9.394992	
10.2127	  9.388082	
10.246	  9.384441	
10.2792	  9.378545	
